# xmcd
#
# Track frame offsets:
#	150
#	27399
#	49050
#	71931
#	93942
#	113070
#	137931
#	174411
#	190305
#	226701
#	249210
#	265263
#	295173
#	334236
#
# Disc length: 4692 seconds
#
# Revision: 1
# Processed by: cddbd v1.5.2PL0 Copyright (c) Steve Scherf et al.
# Submitted via: audiograbber 1.83.01
#
DISCID=c812520e
DTITLE=Meiderich Gefühlsecht - (Live) Rock'n Roll will never die (Ratskeller Ha
DTITLE=mb.2009)
DYEAR=2011
DGENRE=Alternative Rock
TTITLE0=Frust
TTITLE1=Hörst Du
TTITLE2=Evelyn
TTITLE3=Geli and Wolle
TTITLE4=Ich geh runter zum Bahnhof
TTITLE5=Hey Baby
TTITLE6=Whisky
TTITLE7=Schreiing in the Wind
TTITLE8=Krank
TTITLE9=Kleiner Mann
TTITLE10=Spanner
TTITLE11=Ich bin der beste Trinker
TTITLE12=Kilomann
TTITLE13=Oh Baby
EXTD=
EXTT0=
EXTT1=
EXTT2=
EXTT3=
EXTT4=
EXTT5=
EXTT6=
EXTT7=
EXTT8=
EXTT9=
EXTT10=
EXTT11=
EXTT12=
EXTT13=
PLAYORDER=
